<svg xmlns="http://www.w3.org/2000/svg" width="944" height="1346" viewBox="0 0 944 1346" font-family="Menlo, Consolas, monospace">
<rect x="0" y="0" width="944" height="1346" fill="#ffffff"/>
<text x="24" y="40" font-size="22" font-weight="bold" fill="#1f2430">HeapNode block list &#8212; state after each line of App/main.cpp</text>
<text x="24" y="62" font-size="13" fill="#3a3f4b">Each box = one HeapNode: dark strip is the 32-byte header (size/prev/next/free).</text>
<text x="24" y="78" font-size="13" fill="#3a3f4b">Coloured strip is the data region, labelled with its <tspan font-weight="bold">size</tspan> in bytes.</text>
<rect x="24" y="100" width="16" height="16" fill="#4a4e58"/>
<text x="46" y="113" font-size="12" fill="#1f2430">header</text>
<rect x="114" y="100" width="16" height="16" fill="#f4a261" stroke="#c9701f"/>
<text x="136" y="113" font-size="12" fill="#1f2430">used (free=0)</text>
<rect x="264" y="100" width="16" height="16" fill="#8fd19e" stroke="#3f8f52"/>
<text x="286" y="113" font-size="12" fill="#1f2430">free (free=1)</text>
<text x="24" y="153.0" font-size="12" fill="#3a3f4b">line 9</text>
<text x="24" y="169.0" font-size="12.5" fill="#7a5cff">m.malloc(4*sizeof(int))</text>
<text x="316" y="161.0" font-size="12" fill="#3a3f4b" text-anchor="end">head</text>
<rect x="324" y="134" width="16" height="46" fill="#4a4e58" stroke="#2b2e36"/>
<rect x="340" y="134" width="78" height="46" fill="#f4a261" stroke="#c9701f" stroke-width="1.5"/>
<text x="379.0" y="153.0" font-size="14" font-weight="bold" text-anchor="middle" fill="#1f2430">16</text>
<text x="379.0" y="170.0" font-size="10.5" text-anchor="middle" fill="#1f2430">used</text>
<text x="428" y="161.0" font-size="12" fill="#3a3f4b">tail</text>
<text x="24" y="217.0" font-size="12" fill="#3a3f4b">line 11</text>
<text x="24" y="233.0" font-size="12.5" fill="#7a5cff">m.malloc(6*sizeof(int))</text>
<text x="316" y="225.0" font-size="12" fill="#3a3f4b" text-anchor="end">head</text>
<rect x="324" y="198" width="16" height="46" fill="#4a4e58" stroke="#2b2e36"/>
<rect x="340" y="198" width="78" height="46" fill="#f4a261" stroke="#c9701f" stroke-width="1.5"/>
<text x="379.0" y="217.0" font-size="14" font-weight="bold" text-anchor="middle" fill="#1f2430">16</text>
<text x="379.0" y="234.0" font-size="10.5" text-anchor="middle" fill="#1f2430">used</text>
<line x1="420" y1="221.0" x2="438" y2="221.0" stroke="#1f2430" stroke-width="1.5"/>
<polygon points="438,217.0 444,221.0 438,225.0" fill="#1f2430"/>
<rect x="440" y="198" width="16" height="46" fill="#4a4e58" stroke="#2b2e36"/>
<rect x="456" y="198" width="78" height="46" fill="#f4a261" stroke="#c9701f" stroke-width="1.5"/>
<text x="495.0" y="217.0" font-size="14" font-weight="bold" text-anchor="middle" fill="#1f2430">24</text>
<text x="495.0" y="234.0" font-size="10.5" text-anchor="middle" fill="#1f2430">used</text>
<text x="544" y="225.0" font-size="12" fill="#3a3f4b">tail</text>
<text x="24" y="281.0" font-size="12" fill="#3a3f4b">line 13</text>
<text x="24" y="297.0" font-size="12.5" fill="#7a5cff">m.free(a)</text>
<text x="316" y="289.0" font-size="12" fill="#3a3f4b" text-anchor="end">head</text>
<rect x="324" y="262" width="16" height="46" fill="#4a4e58" stroke="#2b2e36"/>
<rect x="340" y="262" width="78" height="46" fill="#8fd19e" stroke="#3f8f52" stroke-width="1.5"/>
<text x="379.0" y="281.0" font-size="14" font-weight="bold" text-anchor="middle" fill="#1f2430">16</text>
<text x="379.0" y="298.0" font-size="10.5" text-anchor="middle" fill="#1f2430">free</text>
<line x1="420" y1="285.0" x2="438" y2="285.0" stroke="#1f2430" stroke-width="1.5"/>
<polygon points="438,281.0 444,285.0 438,289.0" fill="#1f2430"/>
<rect x="440" y="262" width="16" height="46" fill="#4a4e58" stroke="#2b2e36"/>
<rect x="456" y="262" width="78" height="46" fill="#f4a261" stroke="#c9701f" stroke-width="1.5"/>
<text x="495.0" y="281.0" font-size="14" font-weight="bold" text-anchor="middle" fill="#1f2430">24</text>
<text x="495.0" y="298.0" font-size="10.5" text-anchor="middle" fill="#1f2430">used</text>
<text x="544" y="289.0" font-size="12" fill="#3a3f4b">tail</text>
<text x="24" y="345.0" font-size="12" fill="#3a3f4b">line 15</text>
<text x="24" y="361.0" font-size="12.5" fill="#7a5cff">m.free(b)</text>
<text x="316" y="353.0" font-size="12" fill="#3a3f4b" text-anchor="end">head</text>
<rect x="324" y="326" width="16" height="46" fill="#4a4e58" stroke="#2b2e36"/>
<rect x="340" y="326" width="78" height="46" fill="#8fd19e" stroke="#3f8f52" stroke-width="1.5"/>
<text x="379.0" y="345.0" font-size="14" font-weight="bold" text-anchor="middle" fill="#1f2430">72</text>
<text x="379.0" y="362.0" font-size="10.5" text-anchor="middle" fill="#1f2430">free</text>
<text x="428" y="353.0" font-size="12" fill="#3a3f4b">tail</text>
<text x="24" y="409.0" font-size="12" fill="#3a3f4b">line 17</text>
<text x="24" y="425.0" font-size="12.5" fill="#7a5cff">m.malloc(5)</text>
<text x="316" y="417.0" font-size="12" fill="#3a3f4b" text-anchor="end">head</text>
<rect x="324" y="390" width="16" height="46" fill="#4a4e58" stroke="#2b2e36"/>
<rect x="340" y="390" width="78" height="46" fill="#f4a261" stroke="#c9701f" stroke-width="1.5"/>
<text x="379.0" y="409.0" font-size="14" font-weight="bold" text-anchor="middle" fill="#1f2430">5</text>
<text x="379.0" y="426.0" font-size="10.5" text-anchor="middle" fill="#1f2430">used</text>
<line x1="420" y1="413.0" x2="438" y2="413.0" stroke="#1f2430" stroke-width="1.5"/>
<polygon points="438,409.0 444,413.0 438,417.0" fill="#1f2430"/>
<rect x="440" y="390" width="16" height="46" fill="#4a4e58" stroke="#2b2e36"/>
<rect x="456" y="390" width="78" height="46" fill="#8fd19e" stroke="#3f8f52" stroke-width="1.5"/>
<text x="495.0" y="409.0" font-size="14" font-weight="bold" text-anchor="middle" fill="#1f2430">35</text>
<text x="495.0" y="426.0" font-size="10.5" text-anchor="middle" fill="#1f2430">free</text>
<text x="544" y="417.0" font-size="12" fill="#3a3f4b">tail</text>
<text x="24" y="473.0" font-size="12" fill="#3a3f4b">line 19</text>
<text x="24" y="489.0" font-size="12.5" fill="#7a5cff">m.malloc(6)</text>
<text x="316" y="481.0" font-size="12" fill="#3a3f4b" text-anchor="end">head</text>
<rect x="324" y="454" width="16" height="46" fill="#4a4e58" stroke="#2b2e36"/>
<rect x="340" y="454" width="78" height="46" fill="#f4a261" stroke="#c9701f" stroke-width="1.5"/>
<text x="379.0" y="473.0" font-size="14" font-weight="bold" text-anchor="middle" fill="#1f2430">5</text>
<text x="379.0" y="490.0" font-size="10.5" text-anchor="middle" fill="#1f2430">used</text>
<line x1="420" y1="477.0" x2="438" y2="477.0" stroke="#1f2430" stroke-width="1.5"/>
<polygon points="438,473.0 444,477.0 438,481.0" fill="#1f2430"/>
<rect x="440" y="454" width="16" height="46" fill="#4a4e58" stroke="#2b2e36"/>
<rect x="456" y="454" width="78" height="46" fill="#8fd19e" stroke="#3f8f52" stroke-width="1.5"/>
<text x="495.0" y="473.0" font-size="14" font-weight="bold" text-anchor="middle" fill="#1f2430">35</text>
<text x="495.0" y="490.0" font-size="10.5" text-anchor="middle" fill="#1f2430">free</text>
<line x1="536" y1="477.0" x2="554" y2="477.0" stroke="#1f2430" stroke-width="1.5"/>
<polygon points="554,473.0 560,477.0 554,481.0" fill="#1f2430"/>
<rect x="556" y="454" width="16" height="46" fill="#4a4e58" stroke="#2b2e36"/>
<rect x="572" y="454" width="78" height="46" fill="#f4a261" stroke="#c9701f" stroke-width="1.5"/>
<text x="611.0" y="473.0" font-size="14" font-weight="bold" text-anchor="middle" fill="#1f2430">6</text>
<text x="611.0" y="490.0" font-size="10.5" text-anchor="middle" fill="#1f2430">used</text>
<text x="660" y="481.0" font-size="12" fill="#3a3f4b">tail</text>
<text x="24" y="537.0" font-size="12" fill="#3a3f4b">line 21</text>
<text x="24" y="553.0" font-size="12.5" fill="#7a5cff">m.free(d)</text>
<text x="316" y="545.0" font-size="12" fill="#3a3f4b" text-anchor="end">head</text>
<rect x="324" y="518" width="16" height="46" fill="#4a4e58" stroke="#2b2e36"/>
<rect x="340" y="518" width="78" height="46" fill="#f4a261" stroke="#c9701f" stroke-width="1.5"/>
<text x="379.0" y="537.0" font-size="14" font-weight="bold" text-anchor="middle" fill="#1f2430">5</text>
<text x="379.0" y="554.0" font-size="10.5" text-anchor="middle" fill="#1f2430">used</text>
<line x1="420" y1="541.0" x2="438" y2="541.0" stroke="#1f2430" stroke-width="1.5"/>
<polygon points="438,537.0 444,541.0 438,545.0" fill="#1f2430"/>
<rect x="440" y="518" width="16" height="46" fill="#4a4e58" stroke="#2b2e36"/>
<rect x="456" y="518" width="78" height="46" fill="#8fd19e" stroke="#3f8f52" stroke-width="1.5"/>
<text x="495.0" y="537.0" font-size="14" font-weight="bold" text-anchor="middle" fill="#1f2430">73</text>
<text x="495.0" y="554.0" font-size="10.5" text-anchor="middle" fill="#1f2430">free</text>
<text x="544" y="545.0" font-size="12" fill="#3a3f4b">tail</text>
<text x="24" y="601.0" font-size="12" fill="#3a3f4b">line 23</text>
<text x="24" y="617.0" font-size="12.5" fill="#7a5cff">m.malloc(3)</text>
<text x="316" y="609.0" font-size="12" fill="#3a3f4b" text-anchor="end">head</text>
<rect x="324" y="582" width="16" height="46" fill="#4a4e58" stroke="#2b2e36"/>
<rect x="340" y="582" width="78" height="46" fill="#f4a261" stroke="#c9701f" stroke-width="1.5"/>
<text x="379.0" y="601.0" font-size="14" font-weight="bold" text-anchor="middle" fill="#1f2430">5</text>
<text x="379.0" y="618.0" font-size="10.5" text-anchor="middle" fill="#1f2430">used</text>
<line x1="420" y1="605.0" x2="438" y2="605.0" stroke="#1f2430" stroke-width="1.5"/>
<polygon points="438,601.0 444,605.0 438,609.0" fill="#1f2430"/>
<rect x="440" y="582" width="16" height="46" fill="#4a4e58" stroke="#2b2e36"/>
<rect x="456" y="582" width="78" height="46" fill="#f4a261" stroke="#c9701f" stroke-width="1.5"/>
<text x="495.0" y="601.0" font-size="14" font-weight="bold" text-anchor="middle" fill="#1f2430">3</text>
<text x="495.0" y="618.0" font-size="10.5" text-anchor="middle" fill="#1f2430">used</text>
<line x1="536" y1="605.0" x2="554" y2="605.0" stroke="#1f2430" stroke-width="1.5"/>
<polygon points="554,601.0 560,605.0 554,609.0" fill="#1f2430"/>
<rect x="556" y="582" width="16" height="46" fill="#4a4e58" stroke="#2b2e36"/>
<rect x="572" y="582" width="78" height="46" fill="#8fd19e" stroke="#3f8f52" stroke-width="1.5"/>
<text x="611.0" y="601.0" font-size="14" font-weight="bold" text-anchor="middle" fill="#1f2430">38</text>
<text x="611.0" y="618.0" font-size="10.5" text-anchor="middle" fill="#1f2430">free</text>
<text x="660" y="609.0" font-size="12" fill="#3a3f4b">tail</text>
<text x="24" y="665.0" font-size="12" fill="#3a3f4b">line 25</text>
<text x="24" y="681.0" font-size="12.5" fill="#7a5cff">m.malloc(100)</text>
<text x="316" y="673.0" font-size="12" fill="#3a3f4b" text-anchor="end">head</text>
<rect x="324" y="646" width="16" height="46" fill="#4a4e58" stroke="#2b2e36"/>
<rect x="340" y="646" width="78" height="46" fill="#f4a261" stroke="#c9701f" stroke-width="1.5"/>
<text x="379.0" y="665.0" font-size="14" font-weight="bold" text-anchor="middle" fill="#1f2430">5</text>
<text x="379.0" y="682.0" font-size="10.5" text-anchor="middle" fill="#1f2430">used</text>
<line x1="420" y1="669.0" x2="438" y2="669.0" stroke="#1f2430" stroke-width="1.5"/>
<polygon points="438,665.0 444,669.0 438,673.0" fill="#1f2430"/>
<rect x="440" y="646" width="16" height="46" fill="#4a4e58" stroke="#2b2e36"/>
<rect x="456" y="646" width="78" height="46" fill="#f4a261" stroke="#c9701f" stroke-width="1.5"/>
<text x="495.0" y="665.0" font-size="14" font-weight="bold" text-anchor="middle" fill="#1f2430">3</text>
<text x="495.0" y="682.0" font-size="10.5" text-anchor="middle" fill="#1f2430">used</text>
<line x1="536" y1="669.0" x2="554" y2="669.0" stroke="#1f2430" stroke-width="1.5"/>
<polygon points="554,665.0 560,669.0 554,673.0" fill="#1f2430"/>
<rect x="556" y="646" width="16" height="46" fill="#4a4e58" stroke="#2b2e36"/>
<rect x="572" y="646" width="78" height="46" fill="#8fd19e" stroke="#3f8f52" stroke-width="1.5"/>
<text x="611.0" y="665.0" font-size="14" font-weight="bold" text-anchor="middle" fill="#1f2430">38</text>
<text x="611.0" y="682.0" font-size="10.5" text-anchor="middle" fill="#1f2430">free</text>
<line x1="652" y1="669.0" x2="670" y2="669.0" stroke="#1f2430" stroke-width="1.5"/>
<polygon points="670,665.0 676,669.0 670,673.0" fill="#1f2430"/>
<rect x="672" y="646" width="16" height="46" fill="#4a4e58" stroke="#2b2e36"/>
<rect x="688" y="646" width="78" height="46" fill="#f4a261" stroke="#c9701f" stroke-width="1.5"/>
<text x="727.0" y="665.0" font-size="14" font-weight="bold" text-anchor="middle" fill="#1f2430">100</text>
<text x="727.0" y="682.0" font-size="10.5" text-anchor="middle" fill="#1f2430">used</text>
<text x="776" y="673.0" font-size="12" fill="#3a3f4b">tail</text>
<text x="24" y="729.0" font-size="12" fill="#3a3f4b">line 27</text>
<text x="24" y="745.0" font-size="12.5" fill="#7a5cff">m.free(c)</text>
<text x="316" y="737.0" font-size="12" fill="#3a3f4b" text-anchor="end">head</text>
<rect x="324" y="710" width="16" height="46" fill="#4a4e58" stroke="#2b2e36"/>
<rect x="340" y="710" width="78" height="46" fill="#8fd19e" stroke="#3f8f52" stroke-width="1.5"/>
<text x="379.0" y="729.0" font-size="14" font-weight="bold" text-anchor="middle" fill="#1f2430">5</text>
<text x="379.0" y="746.0" font-size="10.5" text-anchor="middle" fill="#1f2430">free</text>
<line x1="420" y1="733.0" x2="438" y2="733.0" stroke="#1f2430" stroke-width="1.5"/>
<polygon points="438,729.0 444,733.0 438,737.0" fill="#1f2430"/>
<rect x="440" y="710" width="16" height="46" fill="#4a4e58" stroke="#2b2e36"/>
<rect x="456" y="710" width="78" height="46" fill="#f4a261" stroke="#c9701f" stroke-width="1.5"/>
<text x="495.0" y="729.0" font-size="14" font-weight="bold" text-anchor="middle" fill="#1f2430">3</text>
<text x="495.0" y="746.0" font-size="10.5" text-anchor="middle" fill="#1f2430">used</text>
<line x1="536" y1="733.0" x2="554" y2="733.0" stroke="#1f2430" stroke-width="1.5"/>
<polygon points="554,729.0 560,733.0 554,737.0" fill="#1f2430"/>
<rect x="556" y="710" width="16" height="46" fill="#4a4e58" stroke="#2b2e36"/>
<rect x="572" y="710" width="78" height="46" fill="#8fd19e" stroke="#3f8f52" stroke-width="1.5"/>
<text x="611.0" y="729.0" font-size="14" font-weight="bold" text-anchor="middle" fill="#1f2430">38</text>
<text x="611.0" y="746.0" font-size="10.5" text-anchor="middle" fill="#1f2430">free</text>
<line x1="652" y1="733.0" x2="670" y2="733.0" stroke="#1f2430" stroke-width="1.5"/>
<polygon points="670,729.0 676,733.0 670,737.0" fill="#1f2430"/>
<rect x="672" y="710" width="16" height="46" fill="#4a4e58" stroke="#2b2e36"/>
<rect x="688" y="710" width="78" height="46" fill="#f4a261" stroke="#c9701f" stroke-width="1.5"/>
<text x="727.0" y="729.0" font-size="14" font-weight="bold" text-anchor="middle" fill="#1f2430">100</text>
<text x="727.0" y="746.0" font-size="10.5" text-anchor="middle" fill="#1f2430">used</text>
<text x="776" y="737.0" font-size="12" fill="#3a3f4b">tail</text>
<text x="24" y="793.0" font-size="12" fill="#3a3f4b">line 29</text>
<text x="24" y="809.0" font-size="12.5" fill="#7a5cff">m.free(f)</text>
<text x="316" y="801.0" font-size="12" fill="#3a3f4b" text-anchor="end">head</text>
<rect x="324" y="774" width="16" height="46" fill="#4a4e58" stroke="#2b2e36"/>
<rect x="340" y="774" width="78" height="46" fill="#8fd19e" stroke="#3f8f52" stroke-width="1.5"/>
<text x="379.0" y="793.0" font-size="14" font-weight="bold" text-anchor="middle" fill="#1f2430">110</text>
<text x="379.0" y="810.0" font-size="10.5" text-anchor="middle" fill="#1f2430">free</text>
<line x1="420" y1="797.0" x2="438" y2="797.0" stroke="#1f2430" stroke-width="1.5"/>
<polygon points="438,793.0 444,797.0 438,801.0" fill="#1f2430"/>
<rect x="440" y="774" width="16" height="46" fill="#4a4e58" stroke="#2b2e36"/>
<rect x="456" y="774" width="78" height="46" fill="#f4a261" stroke="#c9701f" stroke-width="1.5"/>
<text x="495.0" y="793.0" font-size="14" font-weight="bold" text-anchor="middle" fill="#1f2430">100</text>
<text x="495.0" y="810.0" font-size="10.5" text-anchor="middle" fill="#1f2430">used</text>
<text x="544" y="801.0" font-size="12" fill="#3a3f4b">tail</text>
<text x="24" y="857.0" font-size="12" fill="#3a3f4b">line 31</text>
<text x="24" y="873.0" font-size="12.5" fill="#7a5cff">m.malloc(1000)</text>
<text x="316" y="865.0" font-size="12" fill="#3a3f4b" text-anchor="end">head</text>
<rect x="324" y="838" width="16" height="46" fill="#4a4e58" stroke="#2b2e36"/>
<rect x="340" y="838" width="78" height="46" fill="#8fd19e" stroke="#3f8f52" stroke-width="1.5"/>
<text x="379.0" y="857.0" font-size="14" font-weight="bold" text-anchor="middle" fill="#1f2430">110</text>
<text x="379.0" y="874.0" font-size="10.5" text-anchor="middle" fill="#1f2430">free</text>
<line x1="420" y1="861.0" x2="438" y2="861.0" stroke="#1f2430" stroke-width="1.5"/>
<polygon points="438,857.0 444,861.0 438,865.0" fill="#1f2430"/>
<rect x="440" y="838" width="16" height="46" fill="#4a4e58" stroke="#2b2e36"/>
<rect x="456" y="838" width="78" height="46" fill="#f4a261" stroke="#c9701f" stroke-width="1.5"/>
<text x="495.0" y="857.0" font-size="14" font-weight="bold" text-anchor="middle" fill="#1f2430">100</text>
<text x="495.0" y="874.0" font-size="10.5" text-anchor="middle" fill="#1f2430">used</text>
<line x1="536" y1="861.0" x2="554" y2="861.0" stroke="#1f2430" stroke-width="1.5"/>
<polygon points="554,857.0 560,861.0 554,865.0" fill="#1f2430"/>
<rect x="556" y="838" width="16" height="46" fill="#4a4e58" stroke="#2b2e36"/>
<rect x="572" y="838" width="78" height="46" fill="#f4a261" stroke="#c9701f" stroke-width="1.5"/>
<text x="611.0" y="857.0" font-size="14" font-weight="bold" text-anchor="middle" fill="#1f2430">1000</text>
<text x="611.0" y="874.0" font-size="10.5" text-anchor="middle" fill="#1f2430">used</text>
<text x="660" y="865.0" font-size="12" fill="#3a3f4b">tail</text>
<text x="24" y="921.0" font-size="12" fill="#3a3f4b">line 33</text>
<text x="24" y="937.0" font-size="12.5" fill="#7a5cff">m.free(g)</text>
<text x="316" y="929.0" font-size="12" fill="#3a3f4b" text-anchor="end">head</text>
<rect x="324" y="902" width="16" height="46" fill="#4a4e58" stroke="#2b2e36"/>
<rect x="340" y="902" width="78" height="46" fill="#8fd19e" stroke="#3f8f52" stroke-width="1.5"/>
<text x="379.0" y="921.0" font-size="14" font-weight="bold" text-anchor="middle" fill="#1f2430">110</text>
<text x="379.0" y="938.0" font-size="10.5" text-anchor="middle" fill="#1f2430">free</text>
<line x1="420" y1="925.0" x2="438" y2="925.0" stroke="#1f2430" stroke-width="1.5"/>
<polygon points="438,921.0 444,925.0 438,929.0" fill="#1f2430"/>
<rect x="440" y="902" width="16" height="46" fill="#4a4e58" stroke="#2b2e36"/>
<rect x="456" y="902" width="78" height="46" fill="#f4a261" stroke="#c9701f" stroke-width="1.5"/>
<text x="495.0" y="921.0" font-size="14" font-weight="bold" text-anchor="middle" fill="#1f2430">100</text>
<text x="495.0" y="938.0" font-size="10.5" text-anchor="middle" fill="#1f2430">used</text>
<line x1="536" y1="925.0" x2="554" y2="925.0" stroke="#1f2430" stroke-width="1.5"/>
<polygon points="554,921.0 560,925.0 554,929.0" fill="#1f2430"/>
<rect x="556" y="902" width="16" height="46" fill="#4a4e58" stroke="#2b2e36"/>
<rect x="572" y="902" width="78" height="46" fill="#8fd19e" stroke="#3f8f52" stroke-width="1.5"/>
<text x="611.0" y="921.0" font-size="14" font-weight="bold" text-anchor="middle" fill="#1f2430">1000</text>
<text x="611.0" y="938.0" font-size="10.5" text-anchor="middle" fill="#1f2430">free</text>
<text x="660" y="929.0" font-size="12" fill="#3a3f4b">tail</text>
<text x="24" y="985.0" font-size="12" fill="#3a3f4b">line 35</text>
<text x="24" y="1001.0" font-size="12.5" fill="#7a5cff">m.malloc(160)</text>
<text x="316" y="993.0" font-size="12" fill="#3a3f4b" text-anchor="end">head</text>
<rect x="324" y="966" width="16" height="46" fill="#4a4e58" stroke="#2b2e36"/>
<rect x="340" y="966" width="78" height="46" fill="#8fd19e" stroke="#3f8f52" stroke-width="1.5"/>
<text x="379.0" y="985.0" font-size="14" font-weight="bold" text-anchor="middle" fill="#1f2430">110</text>
<text x="379.0" y="1002.0" font-size="10.5" text-anchor="middle" fill="#1f2430">free</text>
<line x1="420" y1="989.0" x2="438" y2="989.0" stroke="#1f2430" stroke-width="1.5"/>
<polygon points="438,985.0 444,989.0 438,993.0" fill="#1f2430"/>
<rect x="440" y="966" width="16" height="46" fill="#4a4e58" stroke="#2b2e36"/>
<rect x="456" y="966" width="78" height="46" fill="#f4a261" stroke="#c9701f" stroke-width="1.5"/>
<text x="495.0" y="985.0" font-size="14" font-weight="bold" text-anchor="middle" fill="#1f2430">100</text>
<text x="495.0" y="1002.0" font-size="10.5" text-anchor="middle" fill="#1f2430">used</text>
<line x1="536" y1="989.0" x2="554" y2="989.0" stroke="#1f2430" stroke-width="1.5"/>
<polygon points="554,985.0 560,989.0 554,993.0" fill="#1f2430"/>
<rect x="556" y="966" width="16" height="46" fill="#4a4e58" stroke="#2b2e36"/>
<rect x="572" y="966" width="78" height="46" fill="#f4a261" stroke="#c9701f" stroke-width="1.5"/>
<text x="611.0" y="985.0" font-size="14" font-weight="bold" text-anchor="middle" fill="#1f2430">160</text>
<text x="611.0" y="1002.0" font-size="10.5" text-anchor="middle" fill="#1f2430">used</text>
<line x1="652" y1="989.0" x2="670" y2="989.0" stroke="#1f2430" stroke-width="1.5"/>
<polygon points="670,985.0 676,989.0 670,993.0" fill="#1f2430"/>
<rect x="672" y="966" width="16" height="46" fill="#4a4e58" stroke="#2b2e36"/>
<rect x="688" y="966" width="78" height="46" fill="#8fd19e" stroke="#3f8f52" stroke-width="1.5"/>
<text x="727.0" y="985.0" font-size="14" font-weight="bold" text-anchor="middle" fill="#1f2430">808</text>
<text x="727.0" y="1002.0" font-size="10.5" text-anchor="middle" fill="#1f2430">free</text>
<text x="776" y="993.0" font-size="12" fill="#3a3f4b">tail</text>
<text x="24" y="1049.0" font-size="12" fill="#3a3f4b">line 37</text>
<text x="24" y="1065.0" font-size="12.5" fill="#7a5cff">m.malloc(240)</text>
<text x="316" y="1057.0" font-size="12" fill="#3a3f4b" text-anchor="end">head</text>
<rect x="324" y="1030" width="16" height="46" fill="#4a4e58" stroke="#2b2e36"/>
<rect x="340" y="1030" width="78" height="46" fill="#8fd19e" stroke="#3f8f52" stroke-width="1.5"/>
<text x="379.0" y="1049.0" font-size="14" font-weight="bold" text-anchor="middle" fill="#1f2430">110</text>
<text x="379.0" y="1066.0" font-size="10.5" text-anchor="middle" fill="#1f2430">free</text>
<line x1="420" y1="1053.0" x2="438" y2="1053.0" stroke="#1f2430" stroke-width="1.5"/>
<polygon points="438,1049.0 444,1053.0 438,1057.0" fill="#1f2430"/>
<rect x="440" y="1030" width="16" height="46" fill="#4a4e58" stroke="#2b2e36"/>
<rect x="456" y="1030" width="78" height="46" fill="#f4a261" stroke="#c9701f" stroke-width="1.5"/>
<text x="495.0" y="1049.0" font-size="14" font-weight="bold" text-anchor="middle" fill="#1f2430">100</text>
<text x="495.0" y="1066.0" font-size="10.5" text-anchor="middle" fill="#1f2430">used</text>
<line x1="536" y1="1053.0" x2="554" y2="1053.0" stroke="#1f2430" stroke-width="1.5"/>
<polygon points="554,1049.0 560,1053.0 554,1057.0" fill="#1f2430"/>
<rect x="556" y="1030" width="16" height="46" fill="#4a4e58" stroke="#2b2e36"/>
<rect x="572" y="1030" width="78" height="46" fill="#f4a261" stroke="#c9701f" stroke-width="1.5"/>
<text x="611.0" y="1049.0" font-size="14" font-weight="bold" text-anchor="middle" fill="#1f2430">160</text>
<text x="611.0" y="1066.0" font-size="10.5" text-anchor="middle" fill="#1f2430">used</text>
<line x1="652" y1="1053.0" x2="670" y2="1053.0" stroke="#1f2430" stroke-width="1.5"/>
<polygon points="670,1049.0 676,1053.0 670,1057.0" fill="#1f2430"/>
<rect x="672" y="1030" width="16" height="46" fill="#4a4e58" stroke="#2b2e36"/>
<rect x="688" y="1030" width="78" height="46" fill="#f4a261" stroke="#c9701f" stroke-width="1.5"/>
<text x="727.0" y="1049.0" font-size="14" font-weight="bold" text-anchor="middle" fill="#1f2430">240</text>
<text x="727.0" y="1066.0" font-size="10.5" text-anchor="middle" fill="#1f2430">used</text>
<line x1="768" y1="1053.0" x2="786" y2="1053.0" stroke="#1f2430" stroke-width="1.5"/>
<polygon points="786,1049.0 792,1053.0 786,1057.0" fill="#1f2430"/>
<rect x="788" y="1030" width="16" height="46" fill="#4a4e58" stroke="#2b2e36"/>
<rect x="804" y="1030" width="78" height="46" fill="#8fd19e" stroke="#3f8f52" stroke-width="1.5"/>
<text x="843.0" y="1049.0" font-size="14" font-weight="bold" text-anchor="middle" fill="#1f2430">536</text>
<text x="843.0" y="1066.0" font-size="10.5" text-anchor="middle" fill="#1f2430">free</text>
<text x="892" y="1057.0" font-size="12" fill="#3a3f4b">tail</text>
<text x="24" y="1113.0" font-size="12" fill="#3a3f4b">line 39</text>
<text x="24" y="1129.0" font-size="12.5" fill="#7a5cff">m.free(z)</text>
<text x="316" y="1121.0" font-size="12" fill="#3a3f4b" text-anchor="end">head</text>
<rect x="324" y="1094" width="16" height="46" fill="#4a4e58" stroke="#2b2e36"/>
<rect x="340" y="1094" width="78" height="46" fill="#8fd19e" stroke="#3f8f52" stroke-width="1.5"/>
<text x="379.0" y="1113.0" font-size="14" font-weight="bold" text-anchor="middle" fill="#1f2430">110</text>
<text x="379.0" y="1130.0" font-size="10.5" text-anchor="middle" fill="#1f2430">free</text>
<line x1="420" y1="1117.0" x2="438" y2="1117.0" stroke="#1f2430" stroke-width="1.5"/>
<polygon points="438,1113.0 444,1117.0 438,1121.0" fill="#1f2430"/>
<rect x="440" y="1094" width="16" height="46" fill="#4a4e58" stroke="#2b2e36"/>
<rect x="456" y="1094" width="78" height="46" fill="#f4a261" stroke="#c9701f" stroke-width="1.5"/>
<text x="495.0" y="1113.0" font-size="14" font-weight="bold" text-anchor="middle" fill="#1f2430">100</text>
<text x="495.0" y="1130.0" font-size="10.5" text-anchor="middle" fill="#1f2430">used</text>
<line x1="536" y1="1117.0" x2="554" y2="1117.0" stroke="#1f2430" stroke-width="1.5"/>
<polygon points="554,1113.0 560,1117.0 554,1121.0" fill="#1f2430"/>
<rect x="556" y="1094" width="16" height="46" fill="#4a4e58" stroke="#2b2e36"/>
<rect x="572" y="1094" width="78" height="46" fill="#8fd19e" stroke="#3f8f52" stroke-width="1.5"/>
<text x="611.0" y="1113.0" font-size="14" font-weight="bold" text-anchor="middle" fill="#1f2430">160</text>
<text x="611.0" y="1130.0" font-size="10.5" text-anchor="middle" fill="#1f2430">free</text>
<line x1="652" y1="1117.0" x2="670" y2="1117.0" stroke="#1f2430" stroke-width="1.5"/>
<polygon points="670,1113.0 676,1117.0 670,1121.0" fill="#1f2430"/>
<rect x="672" y="1094" width="16" height="46" fill="#4a4e58" stroke="#2b2e36"/>
<rect x="688" y="1094" width="78" height="46" fill="#f4a261" stroke="#c9701f" stroke-width="1.5"/>
<text x="727.0" y="1113.0" font-size="14" font-weight="bold" text-anchor="middle" fill="#1f2430">240</text>
<text x="727.0" y="1130.0" font-size="10.5" text-anchor="middle" fill="#1f2430">used</text>
<line x1="768" y1="1117.0" x2="786" y2="1117.0" stroke="#1f2430" stroke-width="1.5"/>
<polygon points="786,1113.0 792,1117.0 786,1121.0" fill="#1f2430"/>
<rect x="788" y="1094" width="16" height="46" fill="#4a4e58" stroke="#2b2e36"/>
<rect x="804" y="1094" width="78" height="46" fill="#8fd19e" stroke="#3f8f52" stroke-width="1.5"/>
<text x="843.0" y="1113.0" font-size="14" font-weight="bold" text-anchor="middle" fill="#1f2430">536</text>
<text x="843.0" y="1130.0" font-size="10.5" text-anchor="middle" fill="#1f2430">free</text>
<text x="892" y="1121.0" font-size="12" fill="#3a3f4b">tail</text>
<text x="24" y="1177.0" font-size="12" fill="#3a3f4b">line 41</text>
<text x="24" y="1193.0" font-size="12.5" fill="#7a5cff">m.free(x)</text>
<text x="316" y="1185.0" font-size="12" fill="#3a3f4b" text-anchor="end">head</text>
<rect x="324" y="1158" width="16" height="46" fill="#4a4e58" stroke="#2b2e36"/>
<rect x="340" y="1158" width="78" height="46" fill="#8fd19e" stroke="#3f8f52" stroke-width="1.5"/>
<text x="379.0" y="1177.0" font-size="14" font-weight="bold" text-anchor="middle" fill="#1f2430">434</text>
<text x="379.0" y="1194.0" font-size="10.5" text-anchor="middle" fill="#1f2430">free</text>
<line x1="420" y1="1181.0" x2="438" y2="1181.0" stroke="#1f2430" stroke-width="1.5"/>
<polygon points="438,1177.0 444,1181.0 438,1185.0" fill="#1f2430"/>
<rect x="440" y="1158" width="16" height="46" fill="#4a4e58" stroke="#2b2e36"/>
<rect x="456" y="1158" width="78" height="46" fill="#f4a261" stroke="#c9701f" stroke-width="1.5"/>
<text x="495.0" y="1177.0" font-size="14" font-weight="bold" text-anchor="middle" fill="#1f2430">240</text>
<text x="495.0" y="1194.0" font-size="10.5" text-anchor="middle" fill="#1f2430">used</text>
<line x1="536" y1="1181.0" x2="554" y2="1181.0" stroke="#1f2430" stroke-width="1.5"/>
<polygon points="554,1177.0 560,1181.0 554,1185.0" fill="#1f2430"/>
<rect x="556" y="1158" width="16" height="46" fill="#4a4e58" stroke="#2b2e36"/>
<rect x="572" y="1158" width="78" height="46" fill="#8fd19e" stroke="#3f8f52" stroke-width="1.5"/>
<text x="611.0" y="1177.0" font-size="14" font-weight="bold" text-anchor="middle" fill="#1f2430">536</text>
<text x="611.0" y="1194.0" font-size="10.5" text-anchor="middle" fill="#1f2430">free</text>
<text x="660" y="1185.0" font-size="12" fill="#3a3f4b">tail</text>
<text x="24" y="1241.0" font-size="12" fill="#3a3f4b">line 43</text>
<text x="24" y="1257.0" font-size="12.5" fill="#7a5cff">m.free(y)</text>
<text x="316" y="1249.0" font-size="12" fill="#3a3f4b" text-anchor="end">head</text>
<rect x="324" y="1222" width="16" height="46" fill="#4a4e58" stroke="#2b2e36"/>
<rect x="340" y="1222" width="78" height="46" fill="#8fd19e" stroke="#3f8f52" stroke-width="1.5"/>
<text x="379.0" y="1241.0" font-size="14" font-weight="bold" text-anchor="middle" fill="#1f2430">1274</text>
<text x="379.0" y="1258.0" font-size="10.5" text-anchor="middle" fill="#1f2430">free</text>
<text x="428" y="1249.0" font-size="12" fill="#3a3f4b">tail</text>
</svg>